<svg xmlns="http://www.w3.org/2000/svg" xmlns:xlink="http://www.w3.org/1999/xlink" width="1452" height="1399" viewBox="0 0 1452 1399">
  <defs>
    <clipPath id="clip-path">
      <path id="Path_684" data-name="Path 684" d="M985.14.69,653.87.83h-.01L248.5,1S366.31,2.029,480,104.5c111.5,100.5,102,282,104,407,.959,60.11,6.781,123.23,33.03,174a189.943,189.943,0,0,0,10.47,17.9c1.75,2.66,3.58,5.281,5.481,7.84a168.6,168.6,0,0,0,45.259,42.289c26.68,17.061,60.85,28.771,104.57,33.1q5.01.51,10.19.87c184,13,458,3,657,320V.5Z" fill="none"/>
    </clipPath>
    <linearGradient id="linear-gradient" x1="-0.02" y1="1.018" x2="-0.019" y2="1.017" gradientUnits="objectBoundingBox">
      <stop offset="0" stop-color="#49e3f2"/>
      <stop offset="0.172" stop-color="#4bd5f3"/>
      <stop offset="0.495" stop-color="#51b2f7"/>
      <stop offset="0.929" stop-color="#5b78fd"/>
      <stop offset="1" stop-color="#5d6fff"/>
    </linearGradient>
    <clipPath id="clip-path-2">
      <rect id="Rectangle_44" data-name="Rectangle 44" width="1451.5" height="1398.5" fill="none"/>
    </clipPath>
    <clipPath id="clip-path-3">
      <rect id="Rectangle_42" data-name="Rectangle 42" width="842" height="320.865" transform="translate(609.5 499.485)" fill="none"/>
    </clipPath>
    <clipPath id="clip-path-4">
      <rect id="Rectangle_43" data-name="Rectangle 43" width="842" height="751" transform="translate(609.5)" fill="none"/>
    </clipPath>
    <linearGradient id="linear-gradient-2" y1="0.5" x2="1" y2="0.5" gradientUnits="objectBoundingBox">
      <stop offset="0" stop-color="#49e3f2"/>
      <stop offset="0.191" stop-color="#3fd5f3"/>
      <stop offset="0.549" stop-color="#25b2f8"/>
      <stop offset="1" stop-color="#007dff"/>
    </linearGradient>
  </defs>
  <g id="Group_184" data-name="Group 184" transform="translate(-481 14)">
    <g id="Group_63" data-name="Group 63" transform="translate(481 -14)">
      <g id="Group_62" data-name="Group 62" clip-path="url(#clip-path)">
        <rect id="Rectangle_41" data-name="Rectangle 41" width="1633.188" height="1631.14" transform="translate(-304.74 537.038) rotate(-44.122)" fill="url(#linear-gradient)"/>
      </g>
    </g>
    <g id="Group_71" data-name="Group 71" transform="translate(481 -14)">
      <g id="Group_70" data-name="Group 70" clip-path="url(#clip-path-2)">
        <g id="Group_66" data-name="Group 66" opacity="0.3">
          <g id="Group_65" data-name="Group 65">
            <g id="Group_64" data-name="Group 64" clip-path="url(#clip-path-3)">
              <path id="Path_685" data-name="Path 685" d="M1451.5,532,1450,820.35c-55.82-50.4-139.1-98.3-253.5-97.35-153.85,1.28-295.79,52.7-413.689,63.63C716.79,792.75,658.32,786.18,609.5,751c0,0,25.08,5.98,68.74,2.53C728.41,749.58,798.5,741,898.5,665c159.491-121.213,392.5-218.72,553-133" fill="#d9fbff" opacity="0.6"/>
            </g>
          </g>
        </g>
        <g id="Group_69" data-name="Group 69" opacity="0.3">
          <g id="Group_68" data-name="Group 68">
            <g id="Group_67" data-name="Group 67" clip-path="url(#clip-path-4)">
              <path id="Path_686" data-name="Path 686" d="M1451.5,288s-327.422-116.361-452,121c-169,322-390,342-390,342s158.993-117.957,200-387c41-269,337-363,337-363l303-1Z" fill="#d9fbff" opacity="0.45"/>
            </g>
          </g>
        </g>
      </g>
    </g>
    <rect id="crop" width="1451.5" height="1398.5" transform="translate(481 -14)" fill="none"/>
    <rect id="Rectangle_40" data-name="Rectangle 40" width="1451.5" height="1398.5" transform="translate(481 -14)" fill="none"/>
    <path id="Path_683" data-name="Path 683" d="M0,.5S213.5,30,384.5,137,582.806,508.732,589.4,591.116C693.6,716.884,863.355,791.825,863.355,791.825S1063,810.5,1230,987.5s221,411,221,411L1450,.5Z" transform="translate(481 -14)" opacity="0.15" fill="url(#linear-gradient-2)"/>
    <g id="Vector_Smart_Object" data-name="Vector Smart Object" transform="translate(475.943 -58.92)">
      <g id="Group_177" data-name="Group 177">
        <g id="Group_168" data-name="Group 168">
          <path id="Path_464" data-name="Path 464" d="M1026.07,926.986l-31.778,2.974v3.7c-.821-.062-1.651-.1-2.492-.1s-1.669.038-2.491.1v-3.7l-31.778-2.974c2.375,22.869,7.711,37.107,7.711,37.107h0c3.443,9.736,14.029,16.826,26.558,16.826s23.115-7.091,26.559-16.826h0S1023.694,949.855,1026.07,926.986Z" fill="#edeffa"/>
          <ellipse id="Ellipse_21" data-name="Ellipse 21" cx="30.604" cy="13.275" rx="30.604" ry="13.275" transform="translate(961.196 913.711)" fill="#e4e5ed"/>
          <path id="Path_465" data-name="Path 465" d="M991.813,940.254c12.272,0,22.851-3.135,27.729-7.658-.282-6.54-12.584-11.805-27.729-11.805s-27.447,5.265-27.729,11.805C968.963,937.119,979.542,940.254,991.813,940.254Z" fill="#0048be"/>
          <path id="Path_466" data-name="Path 466" d="M991.8,912.121c-18.927,0-34.269,6.655-34.269,14.865s15.343,14.865,34.269,14.865,34.27-6.656,34.27-14.865S1010.726,912.121,991.8,912.121Zm0,28.139c-16.9,0-30.6-5.943-30.6-13.275s13.7-13.276,30.6-13.276,30.6,5.943,30.6,13.276S1008.7,940.261,991.8,940.261Z" fill="#fff"/>
          <path id="Path_467" data-name="Path 467" d="M999.564,795.449c8.133-19.871,28.7-5.331,68.159-20.084s37.724-20.7,47.664-21.038,2.991-5.532-12.341-8.807-43.456,4.966-69.659,3.556-43.372,28.283-41.452,39.009,2.067,8.479-1.209,18.414-7.177,105.7-5.907,123.619c.049.694,2.778.992,2.786,0,.115-14.241,4.607-107.57,6.3-117.618A57.327,57.327,0,0,1,999.564,795.449Z" fill="#002da0"/>
          <path id="Path_468" data-name="Path 468" d="M997.231,930.963C991.8,856.708,983.42,759.2,976.337,726.274s-67.818-17.244-92.573-9.892-45.917,6.9-49.916,21.872-5.526,24.29-2.135,25.476,3.158-6.709,16.838-6.574,46.741,10.982,79.973.134,36.857-21.134,42.144-15.991,5.287,13.194,6.686,18.914S992.2,924.665,993.037,931.76C993.3,934.012,997.322,932.208,997.231,930.963Z" fill="#002da0"/>
          <path id="Path_469" data-name="Path 469" d="M1058.641,893.678c-17.291-7.575-45.378-21.328-51.826-43.769-4.76-16.568-8.621-12.484-9.262-4.742-.728,8.8-5.013,84.1-5.26,88.851-.141,2.714-3.007,1.82-2.985.936.14-5.706,4.593-90.949,6.174-95.618s4.1-4.946,5.8-8.077c2.145-3.964,2.861-5.812,14.457-8.446s40.25,24.65,42.9,40.758,3.348,22.783,4.048,25.816C1063.4,892.452,1061.345,894.862,1058.641,893.678Z" fill="#002da0"/>
          <path id="Path_470" data-name="Path 470" d="M946.271,724.18c-24.15,9.054-56.926-1.807-81.322,4.516-22.542,5.842-29.974,9.065-25.587,30.121a20.776,20.776,0,0,1,9.185-1.659c13.679.134,46.742,10.981,79.973.134s36.857-21.134,42.144-15.991a14.958,14.958,0,0,1,2.613,3.451l0,0S970.422,715.125,946.271,724.18Z" opacity="0.5" style="mix-blend-mode: multiply;isolation: isolate"/>
          <path id="Path_471" data-name="Path 471" d="M982.178,926.986c-.823-16.13-3.934-84.133-13.072-112.675s-44.257-18.125-60.391-11.845S883.589,821.3,874.88,827.44s-.571,6.85,2.856,5.281,28.166,8.991,48.847.285,29.337-21.059,35.217-17.095,9.734,28.867,10.733,45.243,6.6,64.362,7.21,66.531C979.96,928.454,982.23,928,982.178,926.986Z" fill="#002da0"/>
        </g>
        <g id="Group_169" data-name="Group 169">
          <path id="Path_472" data-name="Path 472" d="M1212.456,593.364c-.792,21.9,2.187,24,3.163,29.719s4.188,55.671,2.862,64.531-5.553,10.655-2.921,12.487c5,3.477,14.293-4.263,12.339-8.031a10.442,10.442,0,0,1-.479-1.071c-1.42-3.709-1.119-8.755-.325-13.381,1.437-8.374,8.483-31.513,4.5-48.117s2.316-24.137,2.316-24.137Z" fill="#0048be"/>
          <path id="Path_473" data-name="Path 473" d="M1215.791,695.985c1-1.375,3.973,2.13,5.676,1.281,3.188-1.591,5.41-6.718,6.433-5.2a13.388,13.388,0,0,1,2.284,5.6l.021-.016a11.771,11.771,0,0,1-.736,4.848c-.21.733-1.8,1.428-3.175.733a2.647,2.647,0,0,0-2.37-.294,9.425,9.425,0,0,0-2.69,1.55c-3.627,3.278-11.817,5.679-16.423,3.8S1212.93,699.936,1215.791,695.985Z" fill="#002da0"/>
          <path id="Path_474" data-name="Path 474" d="M1240.119,633.79c-5.583-11.3-8.385-17.334-6.2-30.659l19.213-4.756a78.031,78.031,0,0,1-1.3,9.918c-.433,2.429-1.913,6.854-.481,9.826,4.769,9.91,7.715,9.318,9.635,33.985,3.06,39.319,7.466,35.289,7.449,40.963l.017-.011a13.165,13.165,0,0,1-1.047,5.6,2.649,2.649,0,0,1-2.45,1.286c-.884.026-2.873-1.084-3.659-1.663-2.76,2.218-2.786,5-5.391,5.668-5.718,1.475-9.527,2.08-8.993.514a26.676,26.676,0,0,1,4.7-6.8,20.13,20.13,0,0,0,2.968-4.35c.02-.042.039-.082.058-.126C1260.593,679.391,1245.7,645.092,1240.119,633.79Z" fill="#0048be"/>
          <path id="Path_475" data-name="Path 475" d="M1251.614,697.655a20.082,20.082,0,0,0,2.967-4.349,1,1,0,0,0,.059-.126c.079-.247.153-.488.229-.73v0c4.291.356,3.725,3.164,7.028,1.676s4.281-5.581,5.665-4.641h0a15,15,0,0,1,.887,9.773c-.248,1.163-1.9,1.588-3.283,1.215-.945-.255-1.274-.683-2.25-.663-3.54.075-2.792,3.933-8.331,6.29-8.657,3.684-12.478.637-8.688-2.809C1247.121,702.18,1250.218,698.957,1251.614,697.655Z" fill="#002da0"/>
          <path id="Path_476" data-name="Path 476" d="M1209.758,467.884c-12.128,5.836-21.659,10.337-23.7,8.211-9.256-9.645-12-13.5-19.005-20.932-1.154-1.225-3.574-3.159-4.258-7.246a43.67,43.67,0,0,0-1.806-6.657c-1.053-2.761-2.285-2.374-2.254-1.279.045,1.581,0,3.419-.244,3.07-3.7-5.383-5.135-7.487-5.607-8.834-.75-2.136-2.362-1.724-2.062,0s2.136,5.508,2.436,6.595-2.707,3.131-2.745,5.378,2.368,6.015,4.991,6.689,2,1.3,3.66,3.217,7.371,14.146,13.931,22.484c8.681,11.034,10.707,12.233,17.019,10.73,7.782-1.854,36.657-7.674,48.29-16.442S1209.758,467.884,1209.758,467.884Z" fill="#0e2130"/>
          <path id="Path_477" data-name="Path 477" d="M1221.947,698.563c5.552-5.237-.015-8.483,0-22.157s-.154-41.718,1.174-48.834-4.818-11.162,2.44-24.7l5.723,5.3.282,2.053c-1.248,3.911-2.127,10.239.036,19.271,3.978,16.6-3.068,39.742-4.5,48.116-.794,4.626-1.1,9.672.325,13.381a10.26,10.26,0,0,0,.479,1.071,13.388,13.388,0,0,1,2.284,5.6l.021-.016a11.771,11.771,0,0,1-.736,4.848c-.21.733-1.8,1.428-3.175.733a2.647,2.647,0,0,0-2.37-.294,9.425,9.425,0,0,0-2.69,1.55c-2.894,2.616-8.69,4.666-13.257,4.433C1214.97,707.1,1216.42,703.777,1221.947,698.563Z" fill="#002da0" style="mix-blend-mode: multiply;isolation: isolate"/>
          <path id="Path_478" data-name="Path 478" d="M1247.261,455.612c-1.264-1.192-5.028-.7-9.729.62-10.171,2.861-24.72,9.617-27.775,11.652-4.467,2.977,3.163,7.813-3.536,19.907s8.747,20.277,7.817,26.788-3.163,20.462-4.917,34.135,2.14,51.257,3.641,61.358c1.195,8.039,37.708,5.836,39.067-1.779.709-3.976,17-60.25,6.189-81.04-5.818-11.189-7.664-17.756-7.892-24.836C1249.552,484.584,1258.295,466.023,1247.261,455.612Z" fill="#002da0"/>
          <path id="Path_479" data-name="Path 479" d="M1232.592,448.641c.136-4.508,4.192-5.4,6.832-12.637,1.384-3.8,1.293-11.953,2.258-12.7,2.787-2.15,2.861-5.721-2.258-11.65-3.977-4.607-12.359-4.482-13.382-1.795-.978,2.571-.624,3.893-4.3,3.446-14.28-1.737-23.258,18.338-13.494,21.125C1215.42,436.479,1232.592,448.641,1232.592,448.641Z" fill="#002da0"/>
          <path id="Path_480" data-name="Path 480" d="M1219.379,465.728c3.908-7.255-.312-13-1.844-12.377-6.023,2.465-6-.452-9.716-7.71-3.047-5.944-1.333-6.467-.8-8.63s-3.128-3.852-2.938-8.409c.08-1.91,2.728,1.439,4.378,0,3.35-2.922,6.613-3.316,10.748-1.108,9.944,5.311,14.463,10.068,13.719,17.044s-.063,13.024,4.6,11.695c5.229-1.489-2,8.862-8.327,11.652S1218.139,468.03,1219.379,465.728Z" fill="#0e2130"/>
          <path id="Path_481" data-name="Path 481" d="M1206.717,522.44,1188.5,497.675l-14.726,8.651L1192.142,531Z" fill="#0081e0"/>
          <path id="Path_482" data-name="Path 482" d="M1247.261,455.612c6.975,4.614,17.522,46.714,16.685,51.643s-1.49,6.232-3.815,5.954-11.17-5.383-11.17-5.383S1236.281,448.348,1247.261,455.612Z" fill="#0e2130"/>
          <path id="Path_483" data-name="Path 483" d="M1228.089,434.352c-1.3-3.441,2.81-5.751,4.88-2.673,1.656,2.462,2.427,7.908-.011,8.686C1230.036,441.3,1228.089,434.352,1228.089,434.352Z" fill="#0e2130"/>
          <path id="Path_484" data-name="Path 484" d="M1217.325,506.511c2.326-5.395,15.354-5.3,19.356-10.232s3.163-26.417-3.558-30.921-9.981-8.751-14.552-15.123-8.433-6.557-10.149-7.952,1.366-7.4.111-12.907,8.515-13.139,13.725-12.593,8.188,2.2,6.541,0-4.168-2.406-3.33-5.15l-.016-.021c.17-.492.334-1.077.59-1.75,1.023-2.687,9.4-2.812,13.382,1.795,5.119,5.93,5.045,9.5,2.258,11.65-.965.744-.874,8.9-2.258,12.7-2.434,6.675-6.065,7.957-6.724,11.65-.208,5.537.881,9.7,4.832,8.578,3.489-.981,6.458-1.5,8.276-1.218a2.481,2.481,0,0,1,.6.155,2.226,2.226,0,0,1,.852.443c6.975,4.614,17.522,46.714,16.684,51.643-.686,4.042-1.25,5.644-2.712,5.936v0a71.883,71.883,0,0,1-8.961,1.005,89.613,89.613,0,0,0,5.747,13.056c10.812,20.789-5.48,77.064-6.19,81.04-.433,2.429-1.912,6.854-.481,9.827,4.769,9.909,7.715,9.317,9.635,33.984,2.677,34.4,6.384,35.619,7.259,39.185a15.7,15.7,0,0,1,.207,7.97c-.248,1.163-1.9,1.588-3.283,1.215-.945-.255-1.274-.683-2.25-.663-3.54.075-2.792,3.933-8.331,6.29a21.284,21.284,0,0,1-5.115,1.53,32.6,32.6,0,0,0,5.449-3.46c3.927-3.162,2.7-5.488,6.375-5.895s7.118-3.825,4.129-7.344-2.233-18.26-8.777-30.758-4.519-21.021-9.425-35.414-16.7-9.639-19.382-34.964,18.7-31.754,16.379-50.079S1215,511.906,1217.325,506.511Z" fill="#002da0" style="mix-blend-mode: multiply;isolation: isolate"/>
          <path id="Path_485" data-name="Path 485" d="M1261.233,513.193c-7.237,1.686-44.948,2.324-49.251,3.238s-6.54,2.553-11.008,3.318-10.958-2.7-12.472-5.068,3.153-3.009,7.345-3.985,1.963-1.554.774-1.981l-1.346-1.829a39.559,39.559,0,0,1,8.814.905c4.012,1,2.719,1.5,6.331,1.532s26.026-5.369,37.961-7.331C1259.5,500.162,1261.233,513.193,1261.233,513.193Z" fill="#0e2130"/>
        </g>
        <path id="Path_486" data-name="Path 486" d="M980.267,575.13l286.789,16.99a12.272,12.272,0,0,0,13-12.247V356.667a12.273,12.273,0,0,0-13.865-12.166L979.439,394.082a11.751,11.751,0,0,0-10.23,11.65V563.4A11.752,11.752,0,0,0,980.267,575.13Z" fill="#008fff" opacity="0.5"/>
        <path id="Path_487" data-name="Path 487" d="M651.209,630.658,1067,709.384a19.273,19.273,0,0,0,22.862-18.93V205.2a19.274,19.274,0,0,0-25.921-18.085L643.38,341.531a23.378,23.378,0,0,0-15.32,22.338l4.118,244.213A23.38,23.38,0,0,0,651.209,630.658Z" fill="#a1a6d4" opacity="0.5" style="mix-blend-mode: multiply;isolation: isolate"/>
        <g id="Group_170" data-name="Group 170">
          <path id="Path_488" data-name="Path 488" d="M895.523,330.378l116.964-31.117a4.422,4.422,0,0,1,5.559,4.271V459.718a4.42,4.42,0,0,1-4.059,4.4l-118.464,9.771-88.5,7.3a4.421,4.421,0,0,1-4.785-4.4v-118.2a4.42,4.42,0,0,1,3.284-4.271Z" fill="#fff"/>
          <path id="Path_489" data-name="Path 489" d="M924.918,352.122l67.029-15.39a1,1,0,0,0,.777-.974v-8.78a1,1,0,0,0-1.236-.972l-67.029,16.217a1,1,0,0,0-.766.972v7.953A1,1,0,0,0,924.918,352.122Z" fill="#e4e5ed"/>
          <path id="Path_490" data-name="Path 490" d="M917.14,353.908l-5.464,1.254a1,1,0,0,1-1.225-.974V346.4a1,1,0,0,1,.765-.972l5.464-1.321a1,1,0,0,1,1.236.972v7.857A1,1,0,0,1,917.14,353.908Z" fill="#008fff" style="mix-blend-mode: multiply;isolation: isolate"/>
          <path id="Path_491" data-name="Path 491" d="M924.9,366.592,991.931,352.4a1,1,0,0,0,.793-.979v-8.788a1,1,0,0,0-1.22-.975l-67.029,15.021a1,1,0,0,0-.782.976v7.961A1,1,0,0,0,924.9,366.592Z" fill="#e4e5ed"/>
          <path id="Path_492" data-name="Path 492" d="M917.122,368.24l-5.463,1.158a1,1,0,0,1-1.208-.979v-7.8a1,1,0,0,1,.782-.976l5.464-1.224a1,1,0,0,1,1.219.976v7.865A1,1,0,0,1,917.122,368.24Z" fill="#0048be"/>
          <path id="Path_493" data-name="Path 493" d="M992.724,425.24c-18.505,2.657-17.666-11.8-29.17-9.873C947.247,418.1,941,448.042,929.08,449.084c-11.58,1.01-12.9-17.01-25.954-15.091-12.64,1.858-9.208,13.673-24.882,15.447-15.057,1.7-19.343-26.216-34.46-23.88-12.4,1.916-12.126,13.863-27.364,15.963v23.825l176.3-18.322Z" fill="#0056cb"/>
          <path id="Path_494" data-name="Path 494" d="M816.419,433.865c16.8-2.634,15.862,9.713,30.015,7.843,13.375-1.767,19.036-26.356,33.653-28.748,15.336-2.51,26.726,21.141,37.829,20.475,14.179-.85,13.429-14.57,25.883-16.39,12.919-1.888,15.006,18.731,26.413,17.826,9.421-.747,8.73-4.382,22.512-5.994v18.149l-176.3,18.322Z" fill="#008fff" style="mix-blend-mode: multiply;isolation: isolate"/>
        </g>
        <g id="Group_171" data-name="Group 171">
          <path id="Path_495" data-name="Path 495" d="M1099.845,462.543l62.578,1.737a2.484,2.484,0,0,0,2.553-2.482V390.367a2.484,2.484,0,0,0-2.867-2.454l-62.579,9.75a2.485,2.485,0,0,0-2.1,2.454v59.944A2.484,2.484,0,0,0,1099.845,462.543Z" fill="#0056cb" opacity="0.7"/>
          <path id="Path_496" data-name="Path 496" d="M1126.159,430.7a14.247,14.247,0,0,1,12.68-14.077,12.333,12.333,0,0,1,13.556,12.555,14.162,14.162,0,0,1-13.556,14.128A12.372,12.372,0,0,1,1126.159,430.7Z" fill="#0048be"/>
          <path id="Path_497" data-name="Path 497" d="M1107.86,439.729c0-8.439,6.3-15.772,14.372-16.4,8.438-.659,15.561,6.191,15.561,15.328s-7.124,16.5-15.561,16.446C1114.156,455.048,1107.86,448.168,1107.86,439.729Z" fill="#008fff" style="mix-blend-mode: multiply;isolation: isolate"/>
          <path id="Path_498" data-name="Path 498" d="M1108.815,426.905a5.86,5.86,0,0,1,5.051-5.928,4.916,4.916,0,0,1,5.194,5.2,5.832,5.832,0,0,1-5.194,5.939A4.934,4.934,0,0,1,1108.815,426.905Z" fill="#915134"/>
          <path id="Path_499" data-name="Path 499" d="M1135.912,406.2,1152,404.279a.449.449,0,0,0,.4-.446v-4.1a.45.45,0,0,0-.509-.446L1135.8,401.4a.451.451,0,0,0-.391.446v3.9A.45.45,0,0,0,1135.912,406.2Z" fill="#008fff" style="mix-blend-mode: multiply;isolation: isolate"/>
          <path id="Path_500" data-name="Path 500" d="M1110.46,409.238l-3.16.378a.45.45,0,0,1-.5-.447v-3.55a.449.449,0,0,1,.391-.445l3.16-.416a.449.449,0,0,1,.509.445v3.589A.45.45,0,0,1,1110.46,409.238Z" fill="#008fff" style="mix-blend-mode: multiply;isolation: isolate"/>
        </g>
        <g id="Group_173" data-name="Group 173">
          <path id="Path_501" data-name="Path 501" d="M933.531,652.294l119.06,16.544a7.235,7.235,0,0,0,8.233-7.164V503.686a7.234,7.234,0,0,0-7.559-7.225L934.2,501.772A7.234,7.234,0,0,0,927.291,509V645.13A7.234,7.234,0,0,0,933.531,652.294Z" fill="#fff"/>
          <g id="Group_172" data-name="Group 172">
            <path id="Path_502" data-name="Path 502" d="M1003.845,531.106l31.911-.26a.68.68,0,0,0,.675-.681V520.148a.681.681,0,0,0-.695-.681l-31.911.654a.681.681,0,0,0-.667.681v9.623A.681.681,0,0,0,1003.845,531.106Z" fill="#e4e5ed"/>
            <path id="Path_503" data-name="Path 503" d="M953.671,531.516l-6.79.056a.682.682,0,0,1-.687-.681V521.97a.682.682,0,0,1,.667-.681l6.79-.139a.681.681,0,0,1,.7.681v9A.682.682,0,0,1,953.671,531.516Z" fill="#e4e5ed"/>
          </g>
          <path id="Path_504" data-name="Path 504" d="M954.347,594.621c0,23.157,15.166,43.7,34.646,45.976,20.387,2.381,37.625-15.992,37.625-41.139s-17.238-45.828-37.625-46.175C969.513,552.95,954.347,571.464,954.347,594.621Zm9,.6c0-17.139,11.293-30.69,25.642-30.254,14.836.451,27.237,15.586,27.237,33.792s-12.4,31.681-27.237,30.147C974.644,627.424,963.351,612.363,963.351,595.224Z" fill="#008fff" style="mix-blend-mode: multiply;isolation: isolate"/>
          <path id="Path_505" data-name="Path 505" d="M988.993,564.97V553.282c20.387.347,37.625,21.026,37.625,46.175l-10.387-.7C1016.231,580.556,1003.83,565.421,988.993,564.97Z" fill="#ff7a3f"/>
          <path id="Path_506" data-name="Path 506" d="M984.2,559.005c0-3.207,2.141-5.769,4.8-5.723,2.672.045,4.85,2.71,4.85,5.952s-2.178,5.8-4.85,5.722C986.338,564.875,984.2,562.211,984.2,559.005Z" fill="#0056cb"/>
          <path id="Path_507" data-name="Path 507" d="M1016.231,598.762c0-3.324,2.3-5.88,5.158-5.708,2.874.173,5.217,3.04,5.217,6.4s-2.343,5.916-5.217,5.7C1018.533,604.95,1016.231,602.086,1016.231,598.762Z" fill="#0056cb"/>
        </g>
        <g id="Group_175" data-name="Group 175">
          <path id="Path_508" data-name="Path 508" d="M808.81,634.974l84.53,11.747a4.737,4.737,0,0,0,5.39-4.691V508.318a4.736,4.736,0,0,0-4.949-4.731l-84.53,3.769a4.737,4.737,0,0,0-4.527,4.731v118.2A4.737,4.737,0,0,0,808.81,634.974Z" fill="#fff"/>
          <path id="Path_509" data-name="Path 509" d="M874.593,613.075l6.533.641v8.839l-6.533-.717Z" fill="#008fff" style="mix-blend-mode: multiply;isolation: isolate"/>
          <path id="Path_510" data-name="Path 510" d="M864.474,604.614l6.359.561v16.251l-6.359-.7Z" fill="#008fff" style="mix-blend-mode: multiply;isolation: isolate"/>
          <path id="Path_511" data-name="Path 511" d="M854.62,593.315l6.193.459v26.554l-6.193-.679Z" fill="#008fff" style="mix-blend-mode: multiply;isolation: isolate"/>
          <path id="Path_512" data-name="Path 512" d="M845.022,582.845l6.033.367v36.045l-6.033-.662Z" fill="#008fff" style="mix-blend-mode: multiply;isolation: isolate"/>
          <path id="Path_513" data-name="Path 513" d="M835.669,569.157l5.879.251v48.806l-5.879-.645Z" fill="#008fff" style="mix-blend-mode: multiply;isolation: isolate"/>
          <path id="Path_514" data-name="Path 514" d="M826.552,572.012l5.731.27V617.2l-5.731-.629Z" fill="#008fff" style="mix-blend-mode: multiply;isolation: isolate"/>
          <path id="Path_515" data-name="Path 515" d="M817.663,554.651l5.588.129v61.427l-5.588-.613Z" fill="#008fff" style="mix-blend-mode: multiply;isolation: isolate"/>
          <path id="Path_516" data-name="Path 516" d="M874.593,605.222l6.533.574v16.759l-6.533-.717Z" fill="#008fff" style="mix-blend-mode: multiply;isolation: isolate"/>
          <path id="Path_517" data-name="Path 517" d="M864.474,580.974l6.359.361v40.092l-6.359-.7Z" fill="#008fff" style="mix-blend-mode: multiply;isolation: isolate"/>
          <path id="Path_518" data-name="Path 518" d="M854.62,587.577l6.193.411v32.339l-6.193-.679Z" fill="#008fff" style="mix-blend-mode: multiply;isolation: isolate"/>
          <path id="Path_519" data-name="Path 519" d="M845.022,569.556l6.033.257v49.444l-6.033-.662Z" fill="#008fff" style="mix-blend-mode: multiply;isolation: isolate"/>
          <path id="Path_520" data-name="Path 520" d="M835.669,559.283l5.879.17v58.761l-5.879-.645Z" fill="#008fff" style="mix-blend-mode: multiply;isolation: isolate"/>
          <path id="Path_521" data-name="Path 521" d="M826.552,569.112l5.731.247V617.2l-5.731-.629Z" fill="#008fff" style="mix-blend-mode: multiply;isolation: isolate"/>
          <path id="Path_522" data-name="Path 522" d="M817.663,549.133l5.588.085v66.989l-5.588-.613Z" fill="#008fff" style="mix-blend-mode: multiply;isolation: isolate"/>
          <g id="Group_174" data-name="Group 174">
            <path id="Path_523" data-name="Path 523" d="M858.948,533.6l21.212-.135a.972.972,0,0,0,.965-.972v-7.515a.971.971,0,0,0-.989-.971l-21.212.4a.972.972,0,0,0-.954.972v7.253A.972.972,0,0,0,858.948,533.6Z" fill="#e4e5ed"/>
            <path id="Path_524" data-name="Path 524" d="M823.484,533.829l-5.821.037v-8.687l5.821-.109Z" fill="#e4e5ed"/>
          </g>
        </g>
        <g id="Group_176" data-name="Group 176">
          <path id="Path_525" data-name="Path 525" d="M835.961,434.37c-13.213,19.763-22.553,62.11-27.384,58.5-1.5-1.122-3.4-2.436-5.583-3.881l7.035,18.158c-12.171,6.68-76.336-12.523-86.032-14.048,11.16-1.09,52.089-16.6,53.053-18.985,4.589-11.375,22.328-56.378,26.174-69.362,0,0,1.422-3.667,3.182-9.648s5.632-5.631,8.55-11.4l-7.729,3.656s4.518-5.69,6.278-7.1,5.75-5.982,5.411-8.081.632-.365-5.117,1.629-14.786,17.018-14.786,17.018l.63,2.08c-3.663-2.585-8.445-2.916-9.32-.1-18.494,59.648-33.79,68.082-46.126,78.445-2.035,1.711-14.454-9.26-18.151-6.388-8.433-4.215-18.42,1.05-44.29-12.473-4.718,2.872-9.889,7.249-17.319,13.191-19.813,15.844-1.483,17.165-1.483,30.368s-5.765,64.372-4.444,77.575,11.792,3.337,10.453,28.046c-.95,11.9,16.514,28.64,15.719,38.3l98.385,15.745s-4.242-95.56-3.841-100.974c.325-4.394.089-12.662,6.674-13.225,16.448-1.405,21.375-.733,35.755-5.865,5.164-1.843,7.036-3.014,10.164-14,5.4-18.958,13.679-75.781,16.186-81.236,4.676-10.178,17.456-25.068,17.453-35.22C865.455,398.617,838.376,430.757,835.961,434.37Z" fill="#0048be" style="mix-blend-mode: multiply;isolation: isolate"/>
          <path id="Path_526" data-name="Path 526" d="M754.161,854.892c1.282,5,.819,9.156,1.087,12.019.407,4.355,5.726,8.278,13.315,7.262s4.613-1.5,21.334-2.851c11.323-.913,23.373-9.909,19.7-19.058-1.754-4.366-6.275-2.215-18.384-.587-17.141,2.305-19.33-6.481-19.33-6.481,2.433,7.068-6.765,11.147-11.766,10.039C754.271,853.941,754.161,854.892,754.161,854.892Z" fill="#0048be"/>
          <path id="Path_527" data-name="Path 527" d="M673.475,841.309c.978,6.2,0,12.566.262,16.887.338,5.568,11.809,8.284,17.339,3.06s4.47-7.9,13.549-16.06c9.8-8.808,3.558-15.97-3.535-15.557s-12.053,5.968-12.053,5.968Z" fill="#0048be"/>
          <path id="Path_528" data-name="Path 528" d="M794.307,405.566c7.95-10.092,13.214-16.506,17.986-19.126s2.112-4.887,0-3.753-5.711,3.285-6.376,2.7-1.461-1.915.977-4.5c2.506-2.654,5.183-3.7,8.528-4.927s4.129-4.091,3.07-5.435c-.977-1.239-5.124-2.052-10.463-.587s-6.845,1.877-9.9,5.4-5.457,9.208-7.158,12.786-2.5,4.39-4.561,6.042S794.307,405.566,794.307,405.566Z" fill="#008fff"/>
          <path id="Path_529" data-name="Path 529" d="M747.206,445.657s11.031-18.946,19.6-27.391,26.449-11.024,30.274-20.8.547-13.763,5.456-19.158,15.569-4.2,16.3-7.08h0c.415,1.469-.573,3.687-3.414,4.733-3.344,1.231-6.022,2.273-8.528,4.927-2.438,2.582-1.642,3.91-.977,4.5s4.263-1.564,6.376-2.7,4.771,1.134,0,3.753-10.036,9.034-17.986,19.126c-4.745,7.7-22.242,33.183-35.89,50.295Z" opacity="0.5" style="mix-blend-mode: multiply;isolation: isolate"/>
          <path id="Path_530" data-name="Path 530" d="M786.414,394.163c-47.443,38.088-57.451,41.863-73.461,43.7s-64.275,4.882-64.275,4.882l5.242,26.821s79.68,8.985,90.277,1.7,45.136-57.294,50.612-66.522C797.553,400.113,790.575,390.822,786.414,394.163Z" fill="#edeffa"/>
          <path id="Path_531" data-name="Path 531" d="M766.806,418.273c7.577-7.47,22.435-10.354,28.415-17.685a5.575,5.575,0,0,1-.409,4.156c-.146.246-.317.527-.5.829-.3.48-.641,1.029-1.031,1.641l-.006.009c-.584.915-1.27,1.97-2.045,3.144l-.023.035c-.772,1.17-1.63,2.456-2.562,3.839l-.039.058q-.935,1.388-1.965,2.9l-.014.021q-.5.732-1.019,1.49l-.054.079q-1.066,1.554-2.21,3.2l-.034.05q-.562.809-1.138,1.637l-.025.037q-1.177,1.688-2.413,3.441l-.054.078c-2.491,3.536-5.136,7.234-7.829,10.925l-.018.024c-2.251,3.087-4.535,6.169-6.789,9.147l-.009.012c-1.343,1.774-2.675,3.512-3.983,5.192l-.059.075q-1.3,1.671-2.569,3.261l-11.21-10.2S758.24,426.719,766.806,418.273Z" fill="#a1a6d4" opacity="0.5" style="mix-blend-mode: multiply;isolation: isolate"/>
          <path id="Path_532" data-name="Path 532" d="M740.623,559.372c1.138,12.728,8.707,27.233,10.631,60.175,7.8,133.562,19.969,224,20.625,225.649,5.19,13.063-16.5,14.262-17.719,9.7-1.141-4.273-22.16-55.916-27.351-103.034-3.755-34.093-32.447-117.922-35.514-104.3-4.349,19.32-12.433-50.534-9.861-89.205S740.623,559.372,740.623,559.372Z" fill="#002da0"/>
          <path id="Path_533" data-name="Path 533" d="M696.862,606.228c-7.83,51.439-8.664,71.035-8.664,112.574,0,33.809,5.618,97.734,6.483,115.5.19,3.907-7.153,13.2-10.6,11.437-8.683-4.438-10.128.871-10.349-2.466-.573-8.7-19.01-79.079-19.576-119.394-.431-30.7-6.949-73.788-6.886-108.821.073-40.664,43.074-73.628,43.074-73.628Z" fill="#002da0"/>
          <path id="Path_534" data-name="Path 534" d="M715.447,353.84c3.266,8.548,1.771,13.424,1.132,17.9-.721,5.049-3.085,5.567-1.042,12.6,1.085,3.742-2.367,21.769-6.825,21.162s-5.519.047-6.675,4.256-32,3.613-30.469-4.662a36.021,36.021,0,0,0,.379-5.945,29.054,29.054,0,0,0-4.044-12.96c-3.633-6.107-10.648-22.928,5.367-31.652S708.692,336.156,715.447,353.84Z" fill="#008fff"/>
          <path id="Path_535" data-name="Path 535" d="M716.124,341.32c2.781,9.144,2.642,11.985-1.007,18.34-5.752,10.019-5.827,12.4-5.285,18.685a14.02,14.02,0,0,1-2.581,2.68,10.057,10.057,0,0,0-2.052-6c-2.7-3.05-5.927,2.633-2.407,12.275,1.342,3.676-1.5,8.351-3.189,9.418-6.257,3.961-13.414-2.615-27.656,2.435,0,0-1.549-7.047-8.277-19.677-12.839-24.1,11.176-44.781,24.967-47.173C698.978,330.509,713.842,333.813,716.124,341.32Z" fill="#002da0"/>
          <path id="Path_536" data-name="Path 536" d="M697.57,366.427c11.656-5.947,18.075-10.985,20.426-16.773a13.637,13.637,0,0,1-1.495,7.384c1.827,6.627.633,10.816.079,14.7-.721,5.049-3.085,5.567-1.042,12.6,1.085,3.742-2.367,21.769-6.825,21.162s-5.519.047-6.675,4.256c-.576,2.1-8.511,3-16.145,2.357a3.491,3.491,0,0,1-1.759-3C683.841,404.073,681.26,374.749,697.57,366.427Z" opacity="0.5" style="mix-blend-mode: multiply;isolation: isolate"/>
          <path id="Path_537" data-name="Path 537" d="M845.282,435.4l-12.414,23.376-18.181,8.333C824.84,451.17,835.126,429,835.467,427.97c.834-2.515.541-3.111,1.039-7.777s1.807-12.656,3.014-16.354,3.369-1.85,3.346.391-1.135,5.615-.69,5.9,1.435.259,3.6-2.952,7.627-9.755,11.813-9.716c2.359.022,9.39,4.411,7.6,8.838-.607,1.5-.419.923-1.45,3.195-2,4.394-9.359,11.319-14.482,18.386A41.5,41.5,0,0,0,845.282,435.4Z" fill="#008fff"/>
          <path id="Path_538" data-name="Path 538" d="M688.673,332.366c10.339-1.793,25.2,1.51,27.485,9.017.059.194.109.369.165.557-1.191,1.538-5.525-3.013-11.131-4.78-7.2-2.268-30.9,1.251-35.281,10.4s2.933,14.115,1.407,26.665c-.631,5.2-3.408,7.141-6.48,7.487-.362-.706-.737-1.428-1.134-2.173C650.865,355.436,674.88,334.758,688.673,332.366Z" fill="#0056cb"/>
          <path id="Path_539" data-name="Path 539" d="M844.769,436.032l-4.118,3.029-17.517,59.062c-10.319,18.2-23.534,13.408-35.314,9.729-7.51-2.346-19.923-9.355-33.886-16.119-4.59-2.223-9.208-2.326-9.015,3.8v.021c.155,3.107.4,6.132.761,9.03,2.155,17.232,5.09,102.565,5.574,114.963,7.8,133.562,19.969,224,20.625,225.649.052.131.085.254.132.383.663,1.665,4.227,8.111,19.2,6.1,12.109-1.628,16.629-3.78,18.384.587,2.319,5.77-1.62,11.476-7.683,15.135,2.839-11.022-28.889.7-34.991-7.634s-2.23-36.474-6.454-56.3-13.143-42.461-26.52-64.044-8.873-54.884-14.853-68.895c-7.51-17.6-21.989-36.636-27.354-24.071a2.952,2.952,0,0,0-.442,1.092c-2.712,24.882-3.1,42.993-3.1,71.253,0,32.232,5.106,91.84,6.332,112.717a16.419,16.419,0,0,1,6.561-1.882c7.094-.412,13.338,6.751,3.535,15.557-8.619,7.743-8.1,10.554-12.762,15.287-.461-.958-1.491-1.452-3.564-.718-5.984,2.121-7.979-6.211-4.341-11.724s5.079-12.435,2.19-34.564S658.457,765.4,660.781,748.1s11.913-20.645,11.282-41.992-15.8-45.042-9.939-66.6,37.481-14.646,54-38.212-40.927-70.271-12.139-86.637,23.938-49.633,34.593-54.793,20.146,21.712,29.69,31.1,15.432-6.132,29.952-1.977c21.264,6.085,28.779-9.96,31.712-19.579s1.174-15.6,6.923-30.614,16.018-21.759,20.066-25.805,8.264-6.682,6.877-12.037l.2.235c.248.294.736,1.075.736,1.075a4.815,4.815,0,0,1,.457,4.043c-.607,1.5-.419.923-1.45,3.195-2,4.394-9.458,11.305-14.482,18.386a43.532,43.532,0,0,0-4.229,7.849Z" opacity="0.5" style="mix-blend-mode: multiply;isolation: isolate"/>
          <path id="Path_540" data-name="Path 540" d="M845.093,435.953l-21.008,62.718c-9.4,21.655-24.484,12.86-36.264,9.181-7.51-2.346-19.923-9.355-33.886-16.119-4.59-2.224-9.208-2.326-9.015,3.8v.021c.155,3.106.4,6.132.761,9.029,2.155,17.232,5.09,102.566,5.574,114.964.258,6.6-53.818,27.183-82.315,21.9-17.93-3.327-22.59-15.6-21.791-30.341,1.34-24.708,9.945-65.808,8.624-79.011s-29.365-85.72-2.882-106.64c19.49-15.4,18.678-20.353,18.678-20.353,8.551-1.32,19.173-2.122,30.653,4.026,3.014,1.614,3.371,2.088,5.369,6.274,9.406,1.831,30.628,3.6,35.924,7.2,6.632,4.507,44.873,44.6,53.758,53.312,2.655,2.6,6.769,5.683,9.615,2.038,1.988-2.547,25.07-44.147,28.58-49.98,2.24-3.724,12.041,1.962,9.626,7.983Z" fill="#fff"/>
          <path id="Path_541" data-name="Path 541" d="M824.085,498.671c-8.355,19-19.73,15.078-36.264,9.181-9.166-3.269-19.923-9.355-33.886-16.119-4.59-2.223-9.208-2.326-9.015,3.8h0v.021c.155,3.107.4,6.132.761,9.03,2.155,17.232,5.09,102.565,5.574,114.963.258,6.6-53.818,27.183-82.315,21.9a36.09,36.09,0,0,1-6.815-1.933c5.858-21.559,37.481-14.646,54-38.211s-40.927-70.271-12.139-86.638,23.938-49.633,34.593-54.793,19.228,23.616,28.772,33,16.35-8.036,30.87-3.881c21.264,6.085,28.779-9.96,31.712-19.579s1.174-15.6,6.923-30.615a51.324,51.324,0,0,1,5.366-10.34c2.329,1.726,4.046,4.572,2.871,7.5Z" fill="#a1a6d4" opacity="0.5" style="mix-blend-mode: multiply;isolation: isolate"/>
        </g>
        <path id="Path_542" data-name="Path 542" d="M702.221,409.124c3.014,1.614,3.371,2.088,5.369,6.274-19.263-2.9-23.1-.983-23.4-6.027-.046-.79-.243-3.372-.32-5.182C690.321,404.058,694.694,405.093,702.221,409.124Z" fill="#a1a6d4" opacity="0.5" style="mix-blend-mode: multiply;isolation: isolate"/>
        <path id="Path_543" data-name="Path 543" d="M1063.938,187.119,743.514,304.766h0c59.018,73.541,79.443,92.475,166.937,101.538s1.1,83.027,39.819,152.816,61.593,82.743,61.166,139.745L1067,709.384a19.273,19.273,0,0,0,22.862-18.93V205.2A19.273,19.273,0,0,0,1063.938,187.119Z" fill="#fff" opacity="0.2"/>
      </g>
    </g>
  </g>
</svg>
